<?xml version="1.0" encoding="UTF-8" standalone="no"?>
<!-- Created with Inkscape (http://www.inkscape.org/) -->

<svg
   version="1.1"
   id="svg8358"
   width="275"
   height="352"
   viewBox="0 0 275 352"
   sodipodi:docname="samsiral.am.svg"
   inkscape:export-filename="../a890e1fc/404.png"
   inkscape:export-xdpi="300"
   inkscape:export-ydpi="300"
   inkscape:version="1.2.2 (732a01da63, 2022-12-09, custom)"
   xmlns:inkscape="http://www.inkscape.org/namespaces/inkscape"
   xmlns:sodipodi="http://sodipodi.sourceforge.net/DTD/sodipodi-0.dtd"
   xmlns="http://www.w3.org/2000/svg"
   xmlns:svg="http://www.w3.org/2000/svg">
  <defs
     id="defs8362">
    <inkscape:path-effect
       effect="powerstroke"
       id="path-effect15855"
       is_visible="true"
       lpeversion="1"
       offset_points="2.487604,3.75"
       not_jump="true"
       sort_points="true"
       interpolator_type="CentripetalCatmullRom"
       interpolator_beta="0.75"
       start_linecap_type="round"
       linejoin_type="spiro"
       miter_limit="4"
       scale_width="1"
       end_linecap_type="round" />
    <inkscape:path-effect
       effect="simplify"
       id="path-effect15853"
       is_visible="true"
       lpeversion="1"
       steps="1"
       threshold="0.0047745358"
       smooth_angles="0"
       helper_size="0"
       simplify_individual_paths="false"
       simplify_just_coalesce="false"
       step="1" />
    <inkscape:path-effect
       effect="powerstroke"
       id="path-effect15848"
       is_visible="true"
       lpeversion="1"
       offset_points="1.9635159,3.75"
       not_jump="true"
       sort_points="true"
       interpolator_type="CentripetalCatmullRom"
       interpolator_beta="0.75"
       start_linecap_type="round"
       linejoin_type="spiro"
       miter_limit="4"
       scale_width="1"
       end_linecap_type="round" />
    <inkscape:path-effect
       effect="simplify"
       id="path-effect15846"
       is_visible="true"
       lpeversion="1"
       steps="1"
       threshold="0.0047745358"
       smooth_angles="0"
       helper_size="0"
       simplify_individual_paths="false"
       simplify_just_coalesce="false"
       step="1" />
    <inkscape:path-effect
       effect="powerstroke"
       id="path-effect15837"
       is_visible="true"
       lpeversion="1"
       offset_points="1.5231799,1.875"
       not_jump="true"
       sort_points="true"
       interpolator_type="CentripetalCatmullRom"
       interpolator_beta="0.75"
       start_linecap_type="round"
       linejoin_type="spiro"
       miter_limit="4"
       scale_width="1"
       end_linecap_type="round" />
    <inkscape:path-effect
       effect="simplify"
       id="path-effect15835"
       is_visible="true"
       lpeversion="1"
       steps="1"
       threshold="0.0047745358"
       smooth_angles="0"
       helper_size="0"
       simplify_individual_paths="false"
       simplify_just_coalesce="false"
       step="1" />
    <inkscape:path-effect
       effect="powerstroke"
       id="path-effect15830"
       is_visible="true"
       lpeversion="1"
       offset_points="1.6576982,15"
       not_jump="true"
       sort_points="true"
       interpolator_type="CentripetalCatmullRom"
       interpolator_beta="0.75"
       start_linecap_type="round"
       linejoin_type="spiro"
       miter_limit="4"
       scale_width="1"
       end_linecap_type="round" />
    <inkscape:path-effect
       effect="simplify"
       id="path-effect15828"
       is_visible="true"
       lpeversion="1"
       steps="1"
       threshold="0.0047745358"
       smooth_angles="0"
       helper_size="0"
       simplify_individual_paths="false"
       simplify_just_coalesce="false"
       step="1" />
  </defs>
  <sodipodi:namedview
     id="namedview8360"
     pagecolor="#ffffff"
     bordercolor="#000000"
     borderopacity="0.25"
     inkscape:showpageshadow="2"
     inkscape:pageopacity="0.0"
     inkscape:pagecheckerboard="0"
     inkscape:deskcolor="#d1d1d1"
     showgrid="false"
     inkscape:zoom="4.0000001"
     inkscape:cx="164.5"
     inkscape:cy="127.375"
     inkscape:window-width="1846"
     inkscape:window-height="1016"
     inkscape:window-x="74"
     inkscape:window-y="27"
     inkscape:window-maximized="1"
     inkscape:current-layer="g8364" />
  <g
     inkscape:groupmode="layer"
     inkscape:label="Image"
     id="g8364"
     style="display:inline">
    <path
       style="fill:none;stroke:#865c2d;stroke-width:0.5;stroke-linejoin:bevel"
       d="m 209.4215,171.32711 c 0,0 -0.22305,9.21216 12.48156,21.68865 12.70461,12.47647 10.21726,19.26495 10.21726,19.26495"
       id="path598"
       sodipodi:nodetypes="csc" />
    <path
       style="opacity:1;fill:#e6ccb2;fill-opacity:1;stroke:#865c2d;stroke-width:0.755906;stroke-linejoin:bevel;stroke-dasharray:none;stroke-opacity:1"
       d="m 156.42144,52.393411 c 0,0 8.68745,6.98354 12.67876,19.42686 3.9913,12.44332 4.14259,44.604409 4.14259,44.604409 0,0 5.70129,-25.364499 12.15556,-40.285619 6.45426,-14.92113 19.38657,-33.1673 19.38657,-33.1673 0,0 -1.21254,-5.226788 -3.8797,-23.327665 -1.42794,-9.690814 -2.44979,-16.7306428 -2.44979,-16.7306428 0,0 -3.38719,-2.610077 -12.16071,-2.164192 -8.77352,0.445885 -19.17223,4.155532 -23.72456,17.2532508 -2.82045,8.114877 -8.14392,25.724202 -6.14872,34.390899 z"
       id="path9675"
       sodipodi:nodetypes="czczcsczsc" />
    <path
       style="opacity:1;fill:none;fill-opacity:1;stroke:#865c2d;stroke-width:0.755906;stroke-linejoin:bevel;stroke-dasharray:none;stroke-opacity:1"
       d="m 204.96591,45.404413 c 0,0 -4.9492,0.661822 -7.96634,-4.002198 -3.01714,-4.66402 -3.48458,-12.788069 -3.72733,-17.368174 -0.24275,-4.580105 0.14495,-12.769025 1.90278,-16.6344198 1.75783,-3.865395 3.13549,-4.615503 3.13549,-4.615503 z"
       id="path9726-6"
       sodipodi:nodetypes="czzzcc" />
    <path
       style="fill:#ffffff;fill-opacity:1;stroke:none;stroke-width:1.02462;stroke-linejoin:bevel;stroke-dasharray:none;stroke-opacity:1"
       d="m 205.92875,45.388281 c 0,0 -5.19591,0.661822 -8.36344,-4.002198 -3.16754,-4.66402 -3.65828,-12.788069 -3.91313,-17.368174 -0.25485,-4.580105 0.15217,-12.769025 1.99763,-16.6344198 1.84545,-3.865395 3.29178,-4.615503 3.29178,-4.615503 z"
       id="path9726-6-3"
       sodipodi:nodetypes="czzzcc" />
    <path
       style="opacity:1;fill:#eacbac;fill-opacity:1;stroke:#865c2d;stroke-width:0.755906;stroke-linejoin:bevel;stroke-dasharray:none;stroke-opacity:1"
       d="m 54.642627,88.080291 c 0,0 -8.161888,-1.25023 -18.068777,1.52734 -8.367259,2.3459 -18.37271,10.691309 -18.293993,22.455799 0.05747,8.58957 0.252295,21.53188 4.188811,36.30523 2.585989,9.70496 7.629103,21.98121 14.045113,27.26211 6.41601,5.2809 17.048845,7.44071 22.994163,6.01871 5.945317,-1.42199 8.837725,-2.91849 11.814288,-5.49412 2.976564,-2.57563 4.219785,-10.94429 4.219785,-10.94429 0,0 -6.187324,-10.79679 -8.943029,-18.9778 -1.552818,-4.60993 -7.339825,-27.14081 -8.909062,-33.4673 -1.569237,-6.32649 -3.1,-20.310879 -3.047299,-24.685679 z"
       id="path10149"
       sodipodi:nodetypes="csssssscssc" />
    <path
       style="opacity:1;fill:#eacbac;fill-opacity:1;stroke:#865c2d;stroke-width:0.755906;stroke-linejoin:bevel;stroke-dasharray:none;stroke-opacity:1"
       d="m 105.2713,62.634151 c 0,0 -9.224145,-2.95878 -20.445946,-1.10923 -15.704316,2.58835 -23.575148,9.96721 -27.51506,17.92613 -3.939912,7.95892 -3.719097,18.711649 0.785939,34.993719 6.53334,23.61275 9.254093,40.48315 15.333515,48.09657 4.663095,5.83971 11.104459,13.59853 22.950937,12.0387 11.846495,-1.55983 18.754175,-11.10537 18.754175,-11.10537 0,0 -5.84749,-11.97514 -6.91659,-20.44493 -1.0691,-8.46979 -2.52686,-18.52378 -3.79456,-25.44561 -1.2677,-6.92182 -2.71186,-26.458379 -3.0485,-35.984579 -0.33664,-9.52621 3.89609,-18.9654 3.89609,-18.9654 z"
       id="path10147"
       sodipodi:nodetypes="cssssscsszc" />
    <path
       style="opacity:1;fill:#eacbac;fill-opacity:1;stroke:#865c2d;stroke-width:0.755906;stroke-linejoin:bevel;stroke-dasharray:none;stroke-opacity:1"
       d="m 155.52141,51.978831 c -4.31411,-2.96571 -10.62099,-4.61081 -19.36925,-4.4426 -8.74827,0.16822 -23.02904,1.75145 -30.15933,13.94097 -7.130285,12.18952 -3.98607,31.18362 -3.86035,38.412809 0.12573,7.22919 4.16919,27.68829 4.76307,36.22113 0.59388,8.53283 5.1824,23.67313 8.49589,27.95829 2.78582,3.60276 10.83255,14.24951 22.23985,14.35033 11.40731,0.10082 19.65958,-4.62164 25.9274,-10.71265 6.26782,-6.091 8.08609,-12.34739 8.69274,-27.54674 0.60666,-15.19936 1.53839,-32.98708 1.38766,-35.94818 -1.22148,-23.995919 -4.58281,-32.841639 -6.67393,-37.785469 -2.09111,-4.94383 -7.12964,-11.48218 -11.44375,-14.44789 z"
       id="path10145"
       sodipodi:nodetypes="zssssssssszz" />
    <path
       style="opacity:1;fill:#e6ccb2;fill-opacity:1;stroke:#865c2d;stroke-width:0.755906;stroke-linejoin:bevel;stroke-dasharray:none;stroke-opacity:1"
       d="m 240.86807,116.53304 c 0,0 4.42952,6.26872 9.13598,15.6134 4.70646,9.34468 9.69588,29.80285 12.49578,42.27831 2.7999,12.47545 8.28361,25.58639 -1.16503,37.97261 -11.22753,14.71818 -13.53507,17.94072 -22.60626,30.55663 -9.0712,12.61592 -14.66777,25.98826 -23.11122,36.66888 -8.44345,10.68062 -27.38411,30.50595 -27.38411,30.50595 l -2.78489,41.20173 -171.273227,0.0942 c 0,0 18.782836,-49.90741 20.147529,-55.15619 1.364693,-5.24879 -1.716549,-6.926 -0.344897,-13.92135 2.167407,-11.05367 -5.174549,-11.1734 -10.740531,-27.74886 -7.669976,-22.84115 -7.209647,-32.67016 -10.062248,-55.75728 -2.852601,-23.08711 -5.9166469,-43.58205 -10.3280449,-50.3029 -4.411397,-6.72086 4.916282,-8.90419 7.3653499,-19.25704 2.449068,-10.35285 7.554499,-19.64995 9.531861,-24.92087 -2.664766,5.47204 -0.334494,34.1213 2.831686,44.10387 3.16618,9.98257 6.428999,20.38041 14.084231,26.61118 6.250161,5.08715 16.722381,7.97926 25.437305,5.39175 7.515917,-2.23152 11.105007,-6.53009 12.39001,-10.30056 0.815507,-2.39287 0.861154,-5.25259 0.861154,-5.25259 0,0 5.074739,6.36346 11.832337,8.70159 6.65756,2.30351 12.878255,0.70477 18.694245,-2.44941 6.58717,-3.57241 9.14246,-7.77586 9.14246,-7.77586 0,0 8.72852,13.1557 19.03921,14.43343 11.14822,1.38151 18.86757,-1.52103 26.36559,-7.35896 3.76221,-2.92924 6.56289,-6.7418 7.60661,-8.68753 1.08889,-2.02994 1.867,-3.31319 1.867,-3.31319 0,0 -0.20477,1.99485 4.36443,7.74426 1.74214,2.19214 6.75403,6.64465 11.53888,7.92262 3.82779,1.02235 8.8089,1.08987 14.29508,-1.44261 4.93517,-2.27812 13.76389,-14.59797 17.42909,-19.5031 3.66519,-4.90513 8.00681,-11.41255 12.87956,-17.95159 4.87275,-6.53904 10.46508,-18.70052 10.46508,-18.70052 z"
       id="path10155"
       sodipodi:nodetypes="czzszzcccssszzzczssscsscssscssszzc" />
    <path
       style="opacity:1;fill:#eacbac;fill-opacity:1;stroke:#865c2d;stroke-width:0.755906;stroke-linejoin:bevel;stroke-dasharray:none;stroke-opacity:1"
       d="m 249.12628,100.97108 c 7.84039,-13.331491 17.08589,-24.731929 21.83136,-34.303169 4.74547,-9.571236 7.57856,-31.569298 -20.46716,-43.220949 -28.04572,-11.651651 -41.90837,12.748772 -47.32202,20.997581 -4.34875,6.626216 -14.72629,23.536238 -19.49269,35.890198 -5.81048,15.06007 -10.44907,36.031189 -10.44907,36.031189 0,0 0.0231,24.69396 -3.41065,42.78635 0,0 30.60055,13.34824 30.82588,13.22428 10.40704,-7.47395 20.29672,-24.14368 28.82337,-35.74606 8.52666,-11.60238 11.82059,-22.32793 19.66098,-35.65942 z"
       id="path10151"
       sodipodi:nodetypes="zzzssccczz" />
    <path
       style="opacity:1;fill:none;fill-opacity:1;stroke:#865c2d;stroke-width:0.977775;stroke-linejoin:bevel;stroke-dasharray:none;stroke-opacity:1"
       d="m 169.94134,158.46339 29.47204,14.15778 c 0,0 2.42469,-7.74078 4.28752,-17.10559 1.21908,-6.12854 2.10241,-13.21074 -0.72026,-16.62405 -3.46144,-4.18574 -15.12097,-10.85276 -21.36181,-6.12319 -2.201,1.66802 -4.75521,6.67827 -6.18366,10.42383 -1.94708,5.10546 -5.49383,15.27122 -5.49383,15.27122 z"
       id="path10153-5"
       sodipodi:nodetypes="ccssssc" />
    <path
       style="fill:#ffffff;fill-opacity:1;stroke:none;stroke-width:0.974761;stroke-linejoin:bevel;stroke-dasharray:none;stroke-opacity:1"
       d="m 169.57389,159.98838 c 0,0 0.76356,2.86868 2.05784,4.61926 1.29428,1.75058 2.12668,3.54347 5.83822,6.24456 3.44543,2.50743 7.03198,4.23486 11.65509,4.45362 4.62311,0.21876 9.66417,-1.46154 9.66417,-1.46154 0,0 2.61036,-8.31644 4.42693,-17.86063 1.1888,-6.24594 2.31808,-13.32078 -0.43449,-16.79947 -3.37547,-4.26592 -14.82121,-10.99071 -20.90706,-6.17054 -2.14634,1.69997 -4.32312,5.75342 -6.17578,10.2947 -1.60097,5.01893 -6.12492,16.68004 -6.12492,16.68004 z"
       id="path10153-5-3"
       sodipodi:nodetypes="czszcssscc" />
    <path
       style="opacity:1;fill:#dfc19f;fill-opacity:1;stroke:none;stroke-width:1.00157;stroke-linejoin:bevel;stroke-dasharray:none;stroke-dashoffset:0;stroke-opacity:1"
       d="m 95.458195,310.5943 c 0,0 -21.932972,2.55922 -35.365639,10.17843 -13.324739,7.55799 -15.12847,-0.75775 -27.04691,8.93 -11.91844,9.68775 -18.375,21.40808 -18.375,21.40808 0,0 7.070705,-18.77751 11.950565,-31.99708 4.87986,-13.21957 8.475784,-24.58387 8.475784,-24.58387 0,0 0.256399,1.58499 8.88106,3.37162 8.624662,1.78663 19.269647,7.78047 26.524181,8.9319 7.254534,1.15144 24.955959,3.76092 24.955959,3.76092 z"
       id="path16126"
       sodipodi:nodetypes="cszczcssc" />
    <path
       style="opacity:1;fill:none;fill-opacity:1;stroke:#7d5b35;stroke-width:0.755906;stroke-linejoin:bevel;stroke-dasharray:none;stroke-opacity:1"
       d="m 134.15875,177.68054 c 0,0 -0.19475,2.49229 -6.27623,4.47036 -6.08147,1.97808 -14.0899,11.39963 -21.77182,27.88696 -7.681925,16.48732 -3.7869,31.6285 -3.7869,31.6285"
       id="path10307"
       sodipodi:nodetypes="cssc" />
    <path
       style="opacity:1;fill:none;fill-opacity:1;stroke:#7d5b35;stroke-width:0.566929;stroke-linejoin:bevel;stroke-dasharray:none;stroke-opacity:1"
       d="m 34.149203,281.14158 c 0,0 -0.270948,2.51881 2.909376,3.06931 3.180325,0.5505 9.706588,3.76553 14.932824,4.46196 5.226236,0.69643 10.995653,2.20344 10.995653,2.20344"
       id="path10309"
       sodipodi:nodetypes="cssc" />
    <path
       style="opacity:1;fill:none;fill-opacity:1;stroke:#7d5b35;stroke-width:0.7;stroke-linejoin:bevel;stroke-dasharray:none;stroke-opacity:1"
       d="m 34.877646,292.94243 c 0,0 -0.227077,2.05876 3.60011,3.30925 3.827187,1.25049 11.306728,2.64412 16.401099,4.91282 5.094371,2.2687 13.399989,5.27525 22.556822,6.85373 9.156838,1.57849 19.064328,3.16823 19.064328,3.16823"
       id="path10311"
       sodipodi:nodetypes="csssc" />
    <path
       style="opacity:1;fill:none;fill-opacity:1;stroke:#7d5b35;stroke-width:0.7;stroke-linejoin:bevel;stroke-dasharray:none;stroke-opacity:1"
       d="m 188.20389,309.83308 c 0,0 0.0379,1.1836 -4.59885,2.03448 -4.63674,0.85088 -10.182,-1.51094 -15.75725,-0.47635 -3.74301,0.69458 -11.87897,1.5631 -11.87897,1.5631"
       id="path10313"
       sodipodi:nodetypes="cssc" />
    <path
       style="opacity:1;fill:none;fill-opacity:1;stroke:#7d5b35;stroke-width:0.5;stroke-linejoin:bevel;stroke-dasharray:none;stroke-dashoffset:0;stroke-opacity:1"
       d="m 111.87313,66.200431 c 0,0 -0.28663,-5.1809 6.39553,-8.21383 6.68215,-3.03293 10.8527,-3.14292 10.8527,-3.14292 v 0"
       id="path15339"
       sodipodi:nodetypes="cscc" />
    <path
       style="opacity:1;fill:none;fill-opacity:1;stroke:#7d5b35;stroke-width:0.5;stroke-linejoin:bevel;stroke-dasharray:none;stroke-dashoffset:0;stroke-opacity:1"
       d="m 149.16842,55.324307 c 0,0 6.13474,3.612064 8.20032,6.919664 3.82678,5.04762 5.01562,12.24036 5.01562,12.24036"
       id="path15341"
       sodipodi:nodetypes="ccc" />
    <path
       style="opacity:1;fill:none;fill-opacity:1;stroke:#7d5b35;stroke-width:0.5;stroke-linejoin:bevel;stroke-dasharray:none;stroke-dashoffset:0;stroke-opacity:1"
       d="m 107.53093,94.229511 c 0,0 -0.77788,8.284369 2.48035,27.043709 3.25823,18.75933 3.46235,24.87294 3.46235,24.87294"
       id="path15343"
       sodipodi:nodetypes="csc" />
    <path
       style="opacity:1;fill:none;fill-opacity:1;stroke:#7d5b35;stroke-width:0.5;stroke-linejoin:bevel;stroke-dasharray:none;stroke-dashoffset:0;stroke-opacity:1"
       d="m 129.49621,169.70594 c 0,0 4.69731,4.87606 13.00307,3.39515 8.30576,-1.48091 15.35223,-6.29397 15.35223,-6.29397"
       id="path15345"
       sodipodi:nodetypes="csc" />
    <path
       style="opacity:1;fill:none;fill-opacity:1;stroke:#7d5b35;stroke-width:0.5;stroke-linejoin:bevel;stroke-dasharray:none;stroke-dashoffset:0;stroke-opacity:1"
       d="m 85.270785,69.461471 c 0,0 -8.883486,-0.0319 -14.866866,5.01451 -5.745034,4.84539 -9.962361,10.24511 -9.512197,21.63982 0.450163,11.394709 2.699459,13.730919 2.699459,13.730919"
       id="path15347"
       sodipodi:nodetypes="cssc" />
    <path
       style="opacity:1;fill:none;fill-opacity:1;stroke:#7d5b35;stroke-width:0.472441;stroke-linejoin:bevel;stroke-dasharray:none;stroke-dashoffset:0;stroke-opacity:1"
       d="m 26.087915,103.23964 c 0,0 -3.556158,3.61633 -2.044582,20.96945 1.233072,14.15586 2.43684,19.5132 4.646386,24.77726 l 5.731144,13.65398"
       id="path15349"
       sodipodi:nodetypes="cssc" />
    <path
       style="opacity:1;fill:none;fill-opacity:1;stroke:#7d5b35;stroke-width:0.5;stroke-linejoin:bevel;stroke-dasharray:none;stroke-dashoffset:0;stroke-opacity:1"
       d="m 90.216455,169.73947 c 0,0 2.19104,1.71748 6.42194,0.96403 4.230905,-0.75345 7.157875,-3.68536 7.157875,-3.68536"
       id="path15351"
       sodipodi:nodetypes="csc" />
    <path
       style="opacity:1;fill:none;fill-opacity:1;stroke:#7d5b35;stroke-width:0.5;stroke-linejoin:bevel;stroke-dasharray:none;stroke-dashoffset:0;stroke-opacity:1"
       d="m 54.010473,174.58889 c 0,0 2.19104,1.71748 6.42194,0.96403 4.2309,-0.75345 7.15787,-3.68536 7.15787,-3.68536"
       id="path15351-8"
       sodipodi:nodetypes="csc" />
    <path
       style="opacity:1;fill:none;fill-opacity:1;stroke:#946b38;stroke-width:0.755906;stroke-linejoin:bevel;stroke-dasharray:none;stroke-dashoffset:0;stroke-opacity:1"
       d="m 38.377501,266.43656 c 0,0 2.536408,-9.26046 11.603156,-16.43278 16.763305,-13.26075 26.763287,-31.84046 36.634788,-42.02005 15.748295,-16.2398 33.123095,-26.14375 33.123095,-26.14375"
       id="path15382"
       sodipodi:nodetypes="cssc" />
    <path
       style="fill:#dfc19f;stroke-linejoin:bevel"
       d="m 156.1496,313.27606 c 0,0 10.925,5.42313 18.67844,9.2627 7.75344,3.83957 10.74844,22.52965 10.74844,22.52965 0,0 0.96187,-14.71921 1.37616,-21.42266 0.41429,-6.70345 1.02616,-13.16732 1.02616,-13.16732 0,0 -4.07384,2.50523 -8.4026,1.80713 -5.27473,-0.85067 -6.13879,-1.4258 -12.35587,-0.57036 -6.21708,0.85544 -11.07073,1.56086 -11.07073,1.56086 z"
       id="path871"
       sodipodi:nodetypes="czczcssc" />
    <path
       style="fill:none;fill-opacity:1;stroke:#865c2d;stroke-width:0.755906;stroke-linejoin:bevel;stroke-dasharray:none;stroke-opacity:1"
       d="m 106.88435,262.79685 c 5.99745,6.97373 8.31317,17.79157 30.27734,28.8374 18.59606,9.352 36.11551,17.04618 46.7222,11.14411"
       id="path4245"
       sodipodi:nodetypes="csc" />
    <path
       style="fill:none;fill-opacity:1;stroke:#865c2d;stroke-width:0.566929;stroke-linejoin:bevel;stroke-dasharray:none;stroke-opacity:1"
       d="m 106.68944,229.39662 c 0,0 0.56904,12.77549 3.83617,19.62658 3.26714,6.85109 5.2492,10.33563 9.04351,17.02035 3.79431,6.68472 13.48164,12.45933 13.48164,12.45933"
       id="path4247"
       sodipodi:nodetypes="cssc" />
    <path
       style="fill:none;stroke:#865c2d;stroke-width:0.566929;stroke-linejoin:bevel;stroke-dasharray:none;stroke-opacity:1"
       d="m 1.7607581,144.38212 c 0,0 -0.238231,3.18682 2.587592,4.43825 2.825822,1.25143 5.8719489,1.32475 10.7349039,3.55589 4.862954,2.23112 11.941932,8.46574 11.941932,8.46574"
       id="path606"
       sodipodi:nodetypes="cssc" />
    <path
       style="fill:none;stroke:#865c2d;stroke-width:0.472441;stroke-linejoin:bevel;stroke-dasharray:none;stroke-opacity:1"
       d="m 3.6702561,145.07818 c 0,0 0.718524,-6.75505 9.0020729,0.16738"
       id="path1220"
       sodipodi:nodetypes="cc" />
    <path
       style="fill:none;stroke:#865c2d;stroke-width:0.472441;stroke-linejoin:bevel;stroke-dasharray:none;stroke-opacity:1"
       d="m 8.8731781,154.93399 c 0,0 6.2473369,0.11898 10.9004129,4.63705"
       id="path1222"
       sodipodi:nodetypes="cc" />
    <path
       style="fill:none;stroke:#865c2d;stroke-width:0.566929;stroke-linejoin:bevel;stroke-dasharray:none;stroke-opacity:1"
       d="m 169.46406,159.50666 c 0,0 4.85426,24.40468 22.14159,36.0385 17.28732,11.63383 23.27436,13.30594 23.27436,13.30594"
       id="path1224"
       sodipodi:nodetypes="csc" />
    <path
       style="fill:none;stroke:#865c2d;stroke-width:0.566929;stroke-linejoin:bevel;stroke-dasharray:none;stroke-opacity:1"
       d="m 159.85367,171.14528 c 0,0 5.01677,-6.46746 10.11267,3.73024 5.0959,10.1977 7.04243,15.21628 19.69988,24.68385 12.65744,9.46756 16.00695,9.34197 16.00695,9.34197"
       id="path1226"
       sodipodi:nodetypes="cssc" />
    <path
       style="fill:none;stroke:#865c2d;stroke-width:0.472441;stroke-linejoin:bevel;stroke-dasharray:none;stroke-opacity:1"
       d="m 224.53346,131.85207 c 0,0 5.57684,-8.00946 -11.31033,-15.88039 -7.45393,-3.4742 -12.78516,-6.96886 -12.78516,-6.96886"
       id="path1272"
       sodipodi:nodetypes="csc" />
    <path
       style="fill:none;stroke:#865c2d;stroke-width:0.472441;stroke-linejoin:bevel;stroke-dasharray:none;stroke-opacity:1"
       d="m 231.35814,124.54544 c 0,0 -5.30738,-8.24942 -16.28711,-13.1723 l -10.97974,-4.92288"
       id="path1274"
       sodipodi:nodetypes="csc" />
    <path
       style="fill:none;stroke:#865c2d;stroke-width:0.472441;stroke-linejoin:bevel;stroke-dasharray:none;stroke-opacity:1"
       d="m 179.70316,104.74186 c 0,0 -0.53185,-10.264799 12.78105,-5.58279 2.90656,1.02221 8.74177,3.19361 8.74177,3.19361"
       id="path1276"
       sodipodi:nodetypes="csc" />
    <path
       style="fill:none;stroke:#865c2d;stroke-width:0.472441;stroke-linejoin:bevel;stroke-dasharray:none;stroke-opacity:1"
       d="m 217.29575,33.465355 c 0,0 7.38602,-8.402703 18.80639,-7.449815 11.42036,0.952889 22.84229,10.588973 22.84229,10.588973"
       id="path1278"
       sodipodi:nodetypes="csc" />
    <path
       style="fill:none;stroke:#865c2d;stroke-width:0.472441;stroke-linejoin:bevel;stroke-dasharray:none;stroke-opacity:1"
       d="m 9.9358998,174.81202 c 0,0 -1.5584527,-6.41432 3.9848082,-8.40345 5.296294,-1.90051 16.531928,4.05227 16.531928,4.05227"
       id="path1478"
       sodipodi:nodetypes="csc" />
    <path
       style="fill:none;stroke:#865c2d;stroke-width:0.472441;stroke-linejoin:bevel;stroke-dasharray:none;stroke-opacity:1"
       d="m 253.46521,155.53255 c 0,0 1.66969,12.99492 4.65031,23.4548 2.98062,10.45989 5.04073,14.53488 3.68084,20.73987 -1.3599,6.20498 -11.9802,18.74798 -11.9802,18.74798"
       id="path1530"
       sodipodi:nodetypes="cssc" />
    <path
       style="display:inline;fill:#e6ccb2;fill-opacity:1;stroke:#946b38;stroke-width:0.755906;stroke-linejoin:bevel;stroke-dasharray:none;stroke-opacity:1"
       d="m 273.52613,58.734111 c 0,0 -2.58139,31.80363 -5.81152,44.841979 -3.23013,13.03836 -13.36877,39.62194 -13.36877,39.62194 0,0 -1.52731,-5.33159 -3.37101,-9.22773 -3.18917,-6.7394 -9.92742,-17.38397 -9.92742,-17.38397 0,0 6.33605,-12.64498 10.95453,-20.174946 5.27663,-8.60302 13.96677,-19.622843 17.12554,-26.271603 2.93504,-6.17784 4.39865,-11.40567 4.39865,-11.40567 z"
       id="path1358"
       sodipodi:nodetypes="czcscssc" />
  </g>
</svg>
