<svg width="50" height="66.667" viewBox="0 0 50 66.667" xmlns="http://www.w3.org/2000/svg">
    <path style="opacity:1;fill:#14ac6c;fill-opacity:1;stroke:#ffff5a;stroke-width:0;stroke-linecap:butt;stroke-linejoin:round;stroke-miterlimit:2.4;stroke-dasharray:none;stroke-opacity:1;paint-order:normal" d="m333.169 184.23-111.341 16.56a3.464 3.464 107.871 0 0-1.906 5.91L375 357.51a5.095 5.095 98.153 0 1-1.168 8.155l-43.053 22.79a3.444 3.444 35.91 0 1-5.006-3.624l7.417-43.324a13.288 13.288 71.934 0 0-3.841-11.776L317.676 318.4a3.688 3.688 161.936 0 0-6.204 2.023l-18.854 110.092a3.442 3.442 35.902 0 0 5.004 3.623l118.052-62.543a5.093 5.093 98.124 0 0 1.164-8.154L273.316 224.058a3.465 3.465 107.825 0 1 1.901-5.913l44.683-6.687a13.305 13.305 143.738 0 0 9.99-7.328l7.135-14.637a3.687 3.687 53.764 0 0-3.856-5.262z" transform="matrix(.1682 0 0 .17647 -36.33 -10.282)"/>
    <path style="opacity:1;fill:#14ac6c;fill-opacity:1;stroke:#ffff5a;stroke-width:0;stroke-linecap:butt;stroke-linejoin:round;stroke-miterlimit:2.4;stroke-dasharray:none;stroke-opacity:1;paint-order:normal;image-rendering:optimizeQuality" d="m412.194 61.698-90.13 183.222a9.631 9.631 80.183 0 0 1.93 11.159l9.571 9.299a5.09 5.09 170.199 0 0 8.114-1.402l28.368-57.59a11.25 11.25 148.113 0 1 10.093-6.279l70.507.002a11.267 11.267 31.854 0 1 10.1 6.276l28.983 58.658a5.097 5.097 9.765 0 0 8.121 1.398l9.592-9.32a9.617 9.617 99.773 0 0 1.922-11.155L418.383 61.693a3.45 3.45 179.958 0 0-6.19.005zm26.25 113.715-46.13.002a4.355 4.355 58.112 0 1-3.907-6.28l23.832-48.374a3.454 3.454 179.965 0 1 6.195-.004l23.909 48.38a4.349 4.349 121.85 0 1-3.899 6.275z" transform="matrix(.1682 0 0 .17647 -36.33 -10.282)"/>
</svg>
