<svg width="48.971" height="66.049" viewBox="0 0 48.971 66.049" xmlns="http://www.w3.org/2000/svg">
    <path style="fill:#14ac6c;image-rendering:optimizeQuality" d="m333.169 184.23-111.341 16.56a3.464 3.464 107.871 0 0-1.906 5.91L375 357.51a5.095 5.095 98.153 0 1-1.168 8.155l-43.053 22.79a3.444 3.444 35.91 0 1-5.006-3.624l7.417-43.324a13.288 13.288 71.934 0 0-3.841-11.776L317.676 318.4a3.688 3.688 161.936 0 0-6.204 2.023l-18.854 110.092a3.442 3.442 35.902 0 0 5.004 3.623l118.052-62.543a5.093 5.093 98.124 0 0 1.164-8.154L273.316 224.058a3.465 3.465 107.825 0 1 1.901-5.913l44.683-6.687a13.305 13.305 143.738 0 0 9.99-7.328l7.135-14.637a3.687 3.687 53.764 0 0-3.856-5.262z" transform="matrix(.168 0 0 .17624 -36.771 -10.534)"/>
    <path style="fill:#14ac6c;image-rendering:optimizeQuality" d="m412.194 61.698-90.343 183.64a9.634 9.634 80.193 0 0 1.929 11.16l9.573 9.307a5.089 5.089 170.209 0 0 8.112-1.4l28.582-58.019a11.251 11.251 148.114 0 1 10.093-6.279l70.507.002a11.267 11.267 31.854 0 1 10.1 6.276l28.983 58.658a5.097 5.097 9.765 0 0 8.121 1.398l9.592-9.32a9.617 9.617 99.773 0 0 1.922-11.155L418.383 61.693a3.45 3.45 179.959 0 0-6.19.005zm26.25 113.715-46.13.002a4.355 4.355 58.112 0 1-3.907-6.28l23.832-48.374a3.454 3.454 179.965 0 1 6.195-.004l23.909 48.38a4.349 4.349 121.85 0 1-3.899 6.275z" transform="matrix(.168 0 0 .17624 -36.771 -10.534)"/>
</svg>
